<svg width="20" height="14" viewBox="0 0 20 14" fill="none" xmlns="http://www.w3.org/2000/svg">
<path fill-rule="evenodd" clip-rule="evenodd" d="M9.625 1.75C6.72875 1.75 4.375 4.10375 4.375 7H7L3.5 10.5L0 7H2.625C2.625 3.1325 5.7575 0 9.625 0C10.9987 0 12.2762 0.4025 13.3525 1.085L12.075 2.3625C11.3488 1.96875 10.5087 1.75 9.625 1.75ZM12.25 7L15.75 3.5L19.25 7H16.625C16.625 10.8675 13.4925 14 9.625 14C8.25125 14 6.97375 13.5975 5.8975 12.915L7.175 11.6375C7.90125 12.0312 8.74125 12.25 9.625 12.25C12.5212 12.25 14.875 9.89625 14.875 7H12.25Z" fill="black"/>
</svg>
