<svg width="24" height="24" viewBox="0 0 24 24" fill="none" xmlns="http://www.w3.org/2000/svg">
<path d="M4.71289 11.5293L4.62988 11.6309C4.55768 11.7394 4.51764 11.8677 4.51758 12C4.51766 12.1766 4.58805 12.3468 4.71289 12.4717L10.0469 17.8047L10.1514 17.8906C10.41 18.0612 10.7616 18.0322 10.9893 17.8047C11.2168 17.577 11.2457 17.2255 11.0752 16.9668L10.9893 16.8623L6.79395 12.667H18.8154C19.1835 12.667 19.4822 12.368 19.4824 12C19.4822 11.632 19.1835 11.334 18.8154 11.334H6.79395L10.9893 7.13867L10.5176 6.667L10.0469 6.19532L4.71289 11.5293ZM10.9893 6.19532C10.729 5.93524 10.3072 5.93535 10.0469 6.19532L10.9893 7.13867C11.2496 6.87837 11.2495 6.45568 10.9893 6.19532Z" fill="black"/>
</svg>
