<svg width="24" height="24" viewBox="0 0 24 24" fill="none" xmlns="http://www.w3.org/2000/svg">
<rect width="24" height="24" rx="12" fill="#BCF14B"/>
<path d="M10.8534 15.6488L16.6044 9.94625L17.2094 9.34638L17.8825 8.67889C18.0392 8.52359 18.0392 8.27177 17.8825 8.11647C17.7259 7.96118 17.472 7.96118 17.3153 8.11647L16.807 8.62051L16.2225 9.2001L10.2862 15.0864C10.2074 15.1645 10.1004 15.2059 9.98393 15.2046C9.85843 15.2059 9.75143 15.1645 9.67266 15.0864L6.68469 12.1236C6.52804 11.9683 6.27412 11.9683 6.11746 12.1236C5.96085 12.2789 5.96085 12.5307 6.11746 12.686L9.10543 15.6488C9.34009 15.8815 9.65589 16.0036 9.98393 15.9999C10.3029 16.0036 10.6187 15.8815 10.8534 15.6488Z" fill="black" stroke="black" stroke-width="0.8"/>
</svg>
