<svg width="24" height="24" viewBox="0 0 24 24" fill="none" xmlns="http://www.w3.org/2000/svg">
<path d="M5.26742 17.4414C4.91086 17.798 4.91086 18.376 5.26742 18.7326C5.62398 19.0891 6.2021 19.0891 6.55866 18.7326L5.26742 17.4414ZM12.6456 12.6456C13.0022 12.289 13.0022 11.711 12.6456 11.3544C12.289 10.9979 11.711 10.9979 11.3544 11.3544L12.6456 12.6456ZM11.3544 11.3544C10.9979 11.711 10.9979 12.289 11.3544 12.6456C11.711 13.0022 12.289 13.0022 12.6456 12.6456L11.3544 11.3544ZM18.7326 6.55866C19.0891 6.2021 19.0891 5.62398 18.7326 5.26742C18.376 4.91086 17.798 4.91086 17.4414 5.26742L18.7326 6.55866ZM12.6456 11.3544C12.289 10.9979 11.711 10.9979 11.3544 11.3544C10.9979 11.711 10.9979 12.289 11.3544 12.6456L12.6456 11.3544ZM17.4414 18.7326C17.798 19.0891 18.376 19.0891 18.7326 18.7326C19.0891 18.376 19.0891 17.798 18.7326 17.4414L17.4414 18.7326ZM11.3544 12.6456C11.711 13.0022 12.289 13.0022 12.6456 12.6456C13.0022 12.289 13.0022 11.711 12.6456 11.3544L11.3544 12.6456ZM6.55866 5.26742C6.2021 4.91086 5.62398 4.91086 5.26742 5.26742C4.91086 5.62398 4.91086 6.2021 5.26742 6.55866L6.55866 5.26742ZM6.55866 18.7326L12.6456 12.6456L11.3544 11.3544L5.26742 17.4414L6.55866 18.7326ZM12.6456 12.6456L18.7326 6.55866L17.4414 5.26742L11.3544 11.3544L12.6456 12.6456ZM11.3544 12.6456L17.4414 18.7326L18.7326 17.4414L12.6456 11.3544L11.3544 12.6456ZM12.6456 11.3544L6.55866 5.26742L5.26742 6.55866L11.3544 12.6456L12.6456 11.3544Z" fill="black"/>
</svg>
