<svg width="16" height="16" viewBox="0 0 16 16" fill="none" xmlns="http://www.w3.org/2000/svg">
<path d="M1.46675 2.8646C1.20897 2.8646 1 3.07357 1 3.33135C1 3.58912 1.20897 3.79809 1.46675 3.79809V2.8646ZM14.5356 3.79809C14.7934 3.79809 15.0023 3.58912 15.0023 3.33135C15.0023 3.07357 14.7934 2.8646 14.5356 2.8646V3.79809ZM1.46675 3.79809H14.5356V2.8646H1.46675V3.79809Z" fill="#FF0000"/>
<path d="M1.46675 2.8646C1.20897 2.8646 1 3.07357 1 3.33135C1 3.58912 1.20897 3.79809 1.46675 3.79809M1.46675 2.8646V3.79809M1.46675 2.8646H14.5356M1.46675 3.79809H14.5356M14.5356 3.79809C14.7934 3.79809 15.0024 3.58912 15.0024 3.33135C15.0024 3.07357 14.7934 2.8646 14.5356 2.8646M14.5356 3.79809V2.8646" stroke="#FF0000" stroke-width="0.311154"/>
<path d="M5.20068 3.33372C5.20068 3.5915 5.40965 3.80047 5.66743 3.80047C5.9252 3.80047 6.13417 3.5915 6.13417 3.33372H5.20068ZM9.86813 3.33372C9.86813 3.5915 10.0771 3.80047 10.3349 3.80047C10.5926 3.80047 10.8016 3.5915 10.8016 3.33372H9.86813ZM9.40139 1H6.60092V1.93349H9.40139V1ZM6.60092 1C6.22955 1 5.8734 1.14752 5.6108 1.41012L6.27088 2.0702C6.35841 1.98267 6.47713 1.93349 6.60092 1.93349V1ZM5.6108 1.41012C5.34821 1.67272 5.20068 2.02887 5.20068 2.40024H6.13417C6.13417 2.27645 6.18335 2.15773 6.27088 2.0702L5.6108 1.41012ZM5.20068 2.40024V3.33372H6.13417V2.40024H5.20068ZM10.8016 3.33372V2.40024H9.86813V3.33372H10.8016ZM10.8016 2.40024C10.8016 2.02887 10.6541 1.67272 10.3915 1.41012L9.73141 2.0702C9.81897 2.15773 9.86813 2.27645 9.86813 2.40024H10.8016ZM10.3915 1.41012C10.1289 1.14752 9.77273 1 9.40139 1V1.93349C9.52517 1.93349 9.64391 1.98267 9.73141 2.0702L10.3915 1.41012Z" fill="#FF0000"/>
<path d="M6.60092 1.46675V1M6.60092 1H9.40139M6.60092 1V1.93349M6.60092 1C6.22955 1 5.8734 1.14752 5.6108 1.41012M5.66743 2.40024H5.20068M5.20068 2.40024C5.20068 2.02887 5.34821 1.67272 5.6108 1.41012M5.20068 2.40024H6.13417M5.20068 2.40024V3.33373M5.20068 3.33373C5.20068 3.5915 5.40965 3.80047 5.66743 3.80047C5.9252 3.80047 6.13417 3.5915 6.13417 3.33373M5.20068 3.33373H6.13417M6.13417 3.33373V2.40024M9.86813 3.33373C9.86813 3.5915 10.0771 3.80047 10.3349 3.80047C10.5926 3.80047 10.8016 3.5915 10.8016 3.33373M9.86813 3.33373H10.8016M9.86813 3.33373V2.40024M10.8016 3.33373V2.40024M10.3349 2.40024H10.8016M10.8016 2.40024H9.86813M10.8016 2.40024C10.8016 2.02887 10.6541 1.67272 10.3915 1.41012M9.40139 1V1.93349M9.40139 1C9.77273 1 10.1289 1.14752 10.3915 1.41012M6.60092 1.93349H9.40139M6.60092 1.93349C6.47713 1.93349 6.35841 1.98267 6.27088 2.0702M9.40139 1.93349C9.52517 1.93349 9.64391 1.98267 9.73141 2.0702M5.6108 1.41012L6.27088 2.0702M6.27088 2.0702C6.18335 2.15773 6.13417 2.27645 6.13417 2.40024M9.86813 2.40024C9.86813 2.27645 9.81897 2.15773 9.73141 2.0702M10.3915 1.41012L9.73141 2.0702" stroke="#FF0000" stroke-width="0.311154"/>
<path d="M6.13477 11.2706C6.13477 11.5283 6.34374 11.7373 6.60151 11.7373C6.85928 11.7373 7.06826 11.5283 7.06826 11.2706H6.13477ZM7.06826 6.60311C7.06826 6.34533 6.85928 6.13636 6.60151 6.13636C6.34374 6.13636 6.13477 6.34533 6.13477 6.60311H7.06826ZM7.06826 11.2706V6.60311H6.13477V11.2706H7.06826Z" fill="#FF0000"/>
<path d="M6.13477 11.2706C6.13477 11.5283 6.34374 11.7373 6.60151 11.7373C6.85928 11.7373 7.06826 11.5283 7.06826 11.2706M6.13477 11.2706H7.06826M6.13477 11.2706V6.60311M7.06826 11.2706V6.60311M7.06826 6.60311C7.06826 6.34533 6.85928 6.13636 6.60151 6.13636C6.34374 6.13636 6.13477 6.34533 6.13477 6.60311M7.06826 6.60311H6.13477" stroke="#FF0000" stroke-width="0.311154"/>
<path d="M8.93408 11.2706C8.93408 11.5283 9.14306 11.7373 9.40083 11.7373C9.65859 11.7373 9.86757 11.5283 9.86757 11.2706H8.93408ZM9.86757 6.60311C9.86757 6.34533 9.65859 6.13636 9.40083 6.13636C9.14306 6.13636 8.93408 6.34533 8.93408 6.60311H9.86757ZM9.86757 11.2706V6.60311H8.93408V11.2706H9.86757Z" fill="#FF0000"/>
<path d="M8.93408 11.2706C8.93408 11.5283 9.14306 11.7373 9.40083 11.7373C9.65859 11.7373 9.86757 11.5283 9.86757 11.2706M8.93408 11.2706H9.86757M8.93408 11.2706V6.60311M9.86757 11.2706V6.60311M9.86757 6.60311C9.86757 6.34533 9.65859 6.13636 9.40083 6.13636C9.14306 6.13636 8.93408 6.34533 8.93408 6.60311M9.86757 6.60311H8.93408" stroke="#FF0000" stroke-width="0.311154"/>
<path d="M3.3323 3.2926C3.31088 3.03571 3.08527 2.84483 2.82839 2.86624C2.5715 2.88766 2.38062 3.11327 2.40203 3.37015L3.3323 3.2926ZM13.6007 3.37013C13.6221 3.11324 13.4312 2.88764 13.1743 2.86624C12.9174 2.84484 12.6918 3.03574 12.6704 3.29262L13.6007 3.37013ZM11.8085 13.6382C11.7988 13.7548 11.7456 13.8639 11.6594 13.9432L12.2916 14.63C12.5501 14.3921 12.7098 14.0656 12.7388 13.7155L11.8085 13.6382ZM11.6594 13.9432C11.5733 14.0225 11.4604 14.0665 11.3433 14.0665L11.3432 15C11.6946 15 12.0331 14.868 12.2916 14.63L11.6594 13.9432ZM11.3433 14.0665H4.66009V15H11.3432L11.3433 14.0665ZM4.66009 14.0665C4.54297 14.0665 4.43009 14.0225 4.34391 13.9432L3.71174 14.63C3.97026 14.868 4.30873 15 4.66009 15V14.0665ZM4.34391 13.9432C4.25775 13.8639 4.20454 13.755 4.19485 13.6383L3.26456 13.7155C3.29361 14.0656 3.45322 14.3921 3.71174 14.63L4.34391 13.9432ZM4.19485 13.6383L3.3323 3.2926L2.40203 3.37015L3.26456 13.7155L4.19485 13.6383ZM12.6704 3.29262L11.8085 13.6382L12.7388 13.7155L13.6007 3.37013L12.6704 3.29262Z" fill="#FF0000"/>
<path d="M12.2736 13.6769L11.8085 13.6382M11.8085 13.6382C11.7988 13.7548 11.7456 13.8639 11.6594 13.9432M11.8085 13.6382L12.7388 13.7155M11.8085 13.6382L12.6704 3.29262M11.3433 14.5333L11.3433 14.0665M11.3433 14.0665C11.4604 14.0665 11.5733 14.0225 11.6594 13.9432M11.3433 14.0665L11.3432 15M11.3433 14.0665H4.66009M4.66009 14.5333V14.0665M4.66009 14.0665V15M4.66009 14.0665C4.54297 14.0665 4.43009 14.0225 4.34391 13.9432M3.72971 13.6769L4.19485 13.6383M4.19485 13.6383C4.20454 13.755 4.25775 13.8639 4.34391 13.9432M4.19485 13.6383L3.26456 13.7155M4.19485 13.6383L3.3323 3.2926M3.3323 3.2926C3.31088 3.03571 3.08527 2.84483 2.82839 2.86624C2.5715 2.88766 2.38062 3.11327 2.40203 3.37015M3.3323 3.2926L2.40203 3.37015M2.40203 3.37015L3.26456 13.7155M13.6007 3.37013C13.6221 3.11324 13.4312 2.88764 13.1743 2.86624C12.9174 2.84484 12.6918 3.03574 12.6704 3.29262M13.6007 3.37013L12.6704 3.29262M13.6007 3.37013L12.7388 13.7155M11.6594 13.9432L12.2916 14.63M12.2916 14.63C12.5501 14.3921 12.7098 14.0656 12.7388 13.7155M12.2916 14.63C12.0331 14.868 11.6946 15 11.3432 15M11.3432 15H4.66009M4.66009 15C4.30873 15 3.97026 14.868 3.71174 14.63M4.34391 13.9432L3.71174 14.63M3.71174 14.63C3.45322 14.3921 3.29361 14.0656 3.26456 13.7155" stroke="#FF0000" stroke-width="0.311154"/>
</svg>
