<svg width="24" height="24" viewBox="0 0 24 24" fill="none" xmlns="http://www.w3.org/2000/svg">
<g clip-path="url(#clip0_66_243)">
<path d="M17.7436 4.61538H6.25646C5.09608 4.61538 4.51589 4.61538 4.15541 4.9536C3.79492 5.29181 3.79492 5.83616 3.79492 6.92485V7.49085C3.79492 8.34241 3.79492 8.7682 4.00793 9.12116C4.22093 9.47413 4.61008 9.69319 5.38837 10.1313L7.77854 11.4768C8.30074 11.7707 8.56183 11.9178 8.74878 12.0801C9.13809 12.418 9.37776 12.8152 9.48636 13.3023C9.53851 13.5362 9.53851 13.8099 9.53851 14.3572V16.5476C9.53851 17.2939 9.53851 17.667 9.74521 17.958C9.95193 18.2489 10.319 18.3924 11.0533 18.6795C12.5948 19.282 13.3655 19.5833 13.9136 19.2405C14.4616 18.8977 14.4616 18.1144 14.4616 16.5476V14.3572C14.4616 13.8099 14.4616 13.5362 14.5138 13.3023C14.6223 12.8152 14.862 12.418 15.2513 12.0801C15.4382 11.9178 15.6993 11.7707 16.2216 11.4768L18.6117 10.1313C19.39 9.69319 19.7792 9.47413 19.9922 9.12116C20.2052 8.7682 20.2052 8.34241 20.2052 7.49085V6.92485C20.2052 5.83616 20.2052 5.29181 19.8447 4.9536C19.4842 4.61538 18.904 4.61538 17.7436 4.61538Z" stroke="black" stroke-width="1.23077"/>
</g>
<defs>
<clipPath id="clip0_66_243">
<rect width="17.6738" height="16" fill="white" transform="translate(3.16309 4)"/>
</clipPath>
</defs>
</svg>
