<svg width="69" height="57" viewBox="0 0 69 57" fill="none" xmlns="http://www.w3.org/2000/svg">
<g opacity="0.2" clip-path="url(#clip0_59059_142)">
<path d="M61.6692 44.2258H8.10394C5.42568 44.2258 3.23438 42.0345 3.23438 39.3562V29.6171C3.23438 24.2605 7.61698 19.8779 12.9735 19.8779H56.7996C62.1561 19.8779 66.5387 24.2605 66.5387 29.6171V39.3562C66.5387 42.0345 64.3474 44.2258 61.6692 44.2258Z" stroke="#9B72D2" stroke-width="4.86957" stroke-miterlimit="10" stroke-linecap="round" stroke-linejoin="round"/>
<path d="M59.2347 19.878H10.5391L15.4086 8.67795C16.8695 5.26925 20.2782 2.83447 24.1738 2.83447H45.3565C49.2521 2.83447 52.6608 5.26925 54.3651 8.67795L59.2347 19.878Z" stroke="#9B72D2" stroke-width="4.86957" stroke-miterlimit="10" stroke-linecap="round" stroke-linejoin="round"/>
<path d="M20.2776 44.2261H5.66895V49.0956C5.66895 51.7739 7.86025 53.9652 10.5385 53.9652H15.4081C18.0863 53.9652 20.2776 51.7739 20.2776 49.0956V44.2261Z" stroke="#9B72D2" stroke-width="4.86957" stroke-miterlimit="10" stroke-linecap="round" stroke-linejoin="round"/>
<path d="M64.1038 44.2261H49.4951V49.0956C49.4951 51.7739 51.6864 53.9652 54.3647 53.9652H59.2342C61.9125 53.9652 64.1038 51.7739 64.1038 49.0956V44.2261Z" stroke="#9B72D2" stroke-width="4.86957" stroke-miterlimit="10" stroke-linecap="round" stroke-linejoin="round"/>
<path d="M3.23438 17.4434H11.5126" stroke="#9B72D2" stroke-width="4.86957" stroke-miterlimit="10" stroke-linecap="round" stroke-linejoin="round"/>
<path d="M59.2344 17.4434H66.5387" stroke="#9B72D2" stroke-width="4.86957" stroke-miterlimit="10" stroke-linecap="round" stroke-linejoin="round"/>
<path d="M47.0607 44.2259H22.7129L26.1216 37.1651C26.852 35.4607 28.5564 34.4868 30.5042 34.4868H39.0259C40.9738 34.4868 42.6781 35.4607 43.4085 37.1651L47.0607 44.2259Z" stroke="#9B72D2" stroke-width="4.86957" stroke-miterlimit="10" stroke-linecap="round" stroke-linejoin="round"/>
<path d="M10.5391 32.0522H17.8434" stroke="#9B72D2" stroke-width="4.86957" stroke-miterlimit="10" stroke-linecap="round" stroke-linejoin="round"/>
<path d="M51.9307 32.0522H59.235" stroke="#9B72D2" stroke-width="4.86957" stroke-miterlimit="10" stroke-linecap="round" stroke-linejoin="round"/>
</g>
<defs>
<clipPath id="clip0_59059_142">
<rect width="68.1739" height="56" fill="white" transform="translate(0.799805 0.399902)"/>
</clipPath>
</defs>
</svg>
