<svg width="24" height="24" viewBox="0 0 24 24" fill="none" xmlns="http://www.w3.org/2000/svg">
<path fill-rule="evenodd" clip-rule="evenodd" d="M10.1538 6.17923C8.38073 6.8857 7.12437 8.57959 7.12429 10.5703V14.4494L5.42624 16.0972C5.30593 16.2084 5.23071 16.3668 5.23071 16.5426V16.6224C5.23071 17.2951 5.78175 17.8404 6.46148 17.8404H9.5541C9.69274 19.0556 10.7349 20 11.9999 20C13.265 20 14.3071 19.0556 14.4458 17.8404H17.5384C18.2182 17.8404 18.7692 17.2951 18.7692 16.6224V16.5428C18.7692 16.367 18.694 16.2085 18.5737 16.0972L16.8758 14.4495V10.5705C16.8757 8.57973 15.6193 6.8856 13.8461 6.17916V5.52247C13.8461 4.72898 13.2284 4.33796 12.9857 4.21785C12.6698 4.06146 12.3196 4 11.9999 4C11.6803 4 11.3301 4.06146 11.0142 4.21785C10.7715 4.33796 10.1538 4.72898 10.1538 5.52247V6.17923ZM12.5704 5.82696C12.5672 5.83747 12.5639 5.84783 12.5604 5.85803C12.3764 5.83751 12.1895 5.82696 12 5.82696C11.8105 5.82696 11.6235 5.83751 11.4395 5.85805C11.436 5.84784 11.4327 5.83748 11.4295 5.82696H11.3846V5.52247C11.3846 5.35431 11.6598 5.21798 11.9999 5.21798C12.3401 5.21798 12.6153 5.35431 12.6153 5.52247V5.82696H12.5704ZM13.1989 17.8404H10.801C10.9275 18.3799 11.4163 18.782 11.9999 18.782C12.5836 18.782 13.0724 18.3799 13.1989 17.8404ZM8.35506 10.5703C8.35516 8.63444 9.97564 7.04494 12 7.04494C14.0244 7.04494 15.6449 8.63444 15.645 10.5703H8.35506ZM8.35506 10.5703H15.645V14.4495C15.645 14.7767 15.778 15.0901 16.014 15.3191L17.357 16.6224H6.64292L8.16627 15.1441C8.28241 15.0336 8.35506 14.8783 8.35506 14.7051V10.5703Z" fill="black"/>
</svg>
