<svg width="24" height="24" viewBox="0 0 24 24" fill="none" xmlns="http://www.w3.org/2000/svg">
<path fill-rule="evenodd" clip-rule="evenodd" d="M15.6649 14.6359C16.561 13.5156 17.0969 12.0946 17.0969 10.5484C17.0969 6.93183 14.165 4 10.5484 4C6.93183 4 4 6.93183 4 10.5484C4 14.165 6.93183 17.0969 10.5484 17.0969C12.0946 17.0969 13.5156 16.561 14.6359 15.6649L18.7579 19.7869C19.042 20.071 19.5027 20.071 19.7869 19.7869C20.071 19.5027 20.071 19.042 19.7869 18.7579L15.6649 14.6359ZM10.5484 15.6489C7.73149 15.6489 5.4479 13.3654 5.4479 10.5484C5.4479 7.73149 7.73149 5.4479 10.5484 5.4479C13.3654 5.4479 15.6489 7.73149 15.6489 10.5484C15.6489 13.3654 13.3654 15.6489 10.5484 15.6489Z" fill="black"/>
</svg>
