<svg width="24" height="24" viewBox="0 0 24 24" fill="none" xmlns="http://www.w3.org/2000/svg">
<path fill-rule="evenodd" clip-rule="evenodd" d="M15.6571 6C15.8426 6 16.0203 6.07308 16.1494 6.20257L19.8065 9.86924C20.0702 10.1336 20.0635 10.5556 19.7916 10.8119C19.5197 11.0683 19.0856 11.0618 18.822 10.7974L16.3428 8.31182V17.3333C16.3428 17.7015 16.0358 18 15.6571 18C15.2784 18 14.9714 17.7015 14.9714 17.3333V8.31182L12.4922 10.7974C12.2287 11.0618 11.7946 11.0683 11.5226 10.8119C11.2507 10.5556 11.2441 10.1336 11.5077 9.86924L15.1649 6.20257C15.294 6.07308 15.4716 6 15.6571 6ZM8.34285 6C8.72156 6 9.02857 6.29848 9.02857 6.66667V15.6882L11.5077 13.2026C11.7713 12.9382 12.2054 12.9317 12.4773 13.1881C12.7492 13.4444 12.7559 13.8664 12.4922 14.1308L8.83513 17.7974C8.70598 17.9269 8.52837 18 8.34285 18C8.15734 18 7.97973 17.9269 7.85058 17.7974L4.19344 14.1308C3.9298 13.8664 3.93648 13.4444 4.20836 13.1881C4.48024 12.9317 4.91435 12.9382 5.17799 13.2026L7.65714 15.6882V6.66667C7.65714 6.29848 7.96415 6 8.34285 6Z" fill="black"/>
</svg>
