<svg width="24" height="24" viewBox="0 0 24 24" fill="none" xmlns="http://www.w3.org/2000/svg">
<path d="M11.1401 14.7366L15.4533 10.4597L15.907 10.0098L16.4119 9.50917C16.5294 9.39269 16.5294 9.20383 16.4119 9.08736C16.2944 8.97088 16.104 8.97088 15.9865 9.08736L15.6053 9.46538L15.1669 9.90008L10.7146 14.3148C10.6556 14.3734 10.5753 14.4044 10.4879 14.4035C10.3938 14.4044 10.3136 14.3734 10.2545 14.3148L8.01352 12.0927C7.89603 11.9762 7.70559 11.9762 7.5881 12.0927C7.47063 12.2092 7.47063 12.3981 7.5881 12.5145L9.82907 14.7366C10.0051 14.9111 10.2419 15.0027 10.4879 14.9999C10.7272 15.0027 10.9641 14.9111 11.1401 14.7366Z" fill="black" stroke="black" stroke-width="0.75"/>
</svg>
