<svg width="26" height="26" viewBox="0 0 26 26" fill="none" xmlns="http://www.w3.org/2000/svg">
<path d="M13.7364 0.325138C13.547 0.117936 13.2792 -9.15527e-05 12.9984 -9.15527e-05C12.7176 -9.15527e-05 12.4499 0.117936 12.2604 0.325138L6.92702 6.15852C6.55435 6.56612 6.58267 7.19866 6.99028 7.57133C7.39789 7.944 8.03042 7.91568 8.40309 7.50807L11.9984 3.57567V18.3334C11.9984 18.8857 12.4462 19.3334 12.9984 19.3334C13.5507 19.3334 13.9984 18.8857 13.9984 18.3334V3.57567L17.5938 7.50807C17.9665 7.91568 18.599 7.944 19.0066 7.57133C19.4142 7.19866 19.4425 6.56612 19.0698 6.15852L13.7364 0.325138Z" fill="black"/>
<path d="M2.00002 16.9998C2.00002 16.4476 1.55231 15.9998 1.00001 15.9998C0.447724 15.9998 6.98609e-07 16.4476 6.98609e-07 16.9998V17.073C-2.59683e-05 18.8965 -5.27307e-05 20.3663 0.155362 21.5223C0.316723 22.7224 0.661913 23.7328 1.46448 24.5354C2.26705 25.338 3.27755 25.6832 4.4777 25.8446C5.63367 25.9999 7.10344 25.9999 8.92691 25.9999H17.0733C18.8968 25.9999 20.3666 25.9999 21.5226 25.8446C22.7227 25.6832 23.7331 25.338 24.5358 24.5354C25.3383 23.7328 25.6835 22.7224 25.8449 21.5223C26.0002 20.3663 26.0002 18.8965 26.0002 17.073V16.9998C26.0002 16.4476 25.5525 15.9998 25.0002 15.9998C24.4479 15.9998 24.0002 16.4476 24.0002 16.9998C24.0002 18.9137 23.9981 20.2485 23.8627 21.2557C23.7311 22.2341 23.4906 22.7521 23.1215 23.1212C22.7524 23.4903 22.2344 23.7308 21.256 23.8624C20.2488 23.9978 18.914 23.9999 17.0001 23.9999H9.00007C7.08618 23.9999 5.75134 23.9978 4.7442 23.8624C3.76583 23.7308 3.24772 23.4903 2.8787 23.1212C2.50969 22.7521 2.26908 22.2341 2.13755 21.2557C2.00214 20.2485 2.00002 18.9137 2.00002 16.9998Z" fill="black"/>
</svg>
