<svg width="83" height="40" viewBox="0 0 83 40" fill="none" xmlns="http://www.w3.org/2000/svg">
<rect width="83" height="40" fill="#E9E9E9"/>
<g filter="url(#filter0_d_19_2250)">
<rect width="1920" height="88" transform="translate(-124 -24)" fill="white"/>
<path d="M41.484 0C30.8363 0 21.8968 1.13879 18.6228 2.64769C15.3203 4.12811 11.6477 11.4164 11.6477 11.4164C11.6477 11.4164 9.39857 10.9893 8.57295 10.2491C7.7758 9.48043 9.85409 7.45908 4.84341 7.45908C-0.138795 7.45908 -0.395023 10.1352 4.84341 11.758C10.0818 13.3523 10.0818 14.1495 10.0818 14.1495C4.30249 14.1495 2.11032 17.1103 0.999995 22.121C-0.0818555 27.0463 -1.10677 34.3915 2.62277 37.8363C1.48398 32.9395 3.76156 30.121 9.3701 32.5979C2.96441 27.6441 1.88256 20.8968 5.38434 20.0142C8.91459 19.1317 21.242 26.6192 21.242 26.6192C17.3132 22.4342 10.3665 17.8505 10.3665 16.7402C10.3665 15.6299 15.3203 5.58007 19.6477 3.78648C23.9751 2.02135 41.484 1.67972 41.484 1.67972V0Z" fill="#9B72D2"/>
<path d="M41.4841 0C52.1318 0 61.0713 1.13879 64.3453 2.64769C67.6478 4.12811 71.3204 11.4164 71.3204 11.4164C71.3204 11.4164 73.5695 10.9893 74.3952 10.2491C75.1923 9.48043 73.114 7.45908 78.1247 7.45908C83.1069 7.45908 83.3631 10.1352 78.1247 11.758C72.8863 13.3523 72.8863 14.1495 72.8863 14.1495C78.6656 14.1495 80.8578 17.1103 81.9681 22.121C83.05 27.0463 84.0749 34.3915 80.3453 37.8363C81.4841 32.9395 79.2066 30.121 73.598 32.5979C80.0037 27.6441 81.0856 20.8968 77.5838 20.0142C74.0535 19.1317 61.7261 26.6192 61.7261 26.6192C65.655 22.4342 72.6016 17.8505 72.6016 16.7402C72.6016 15.6299 67.6478 5.58007 63.3204 3.78648C58.993 2.02135 41.4841 1.67972 41.4841 1.67972V0Z" fill="#9B72D2"/>
<path d="M69.043 9.25267C71.3775 13.153 41.4843 13.0391 41.4843 13.0391C41.4843 13.0391 11.591 13.153 13.9255 9.25267L12.5305 11.9288C13.8117 13.0961 30.8366 13.5801 41.4843 13.5801C52.1319 13.5801 69.1568 13.0961 70.438 11.9288L69.043 9.25267Z" fill="#9B72D2"/>
<path d="M58.6798 27.0178C54.2954 28.2135 41.4841 28.0712 41.4841 28.0712C41.4841 28.0712 28.6727 28.2135 24.2883 27.0178C27.3061 28.4698 33.4556 29.3808 41.4841 29.3808C49.5125 29.3808 55.662 28.4698 58.6798 27.0178Z" fill="#9B72D2"/>
<path d="M59.4769 31.7153C61.6406 35.274 59.9609 37.7224 54.1816 38.121C48.7154 38.4911 42.7937 38.5196 42.1958 38.5196C41.4271 38.5196 34.2527 38.4911 28.7866 38.121C23.0072 37.7224 21.3275 35.274 23.4912 31.7153C18.7937 34.2776 14.3524 34.1637 11.5908 32.8826C12.3026 34.363 16.2883 37.21 20.0463 38.5765C23.6905 39.8861 32.1175 40 42.1389 40C42.1389 40 42.1483 40 42.1673 40C42.1863 40 42.2148 40 42.2527 40C52.2456 40 59.2777 39.8861 62.9218 38.5765C66.6798 37.21 70.6656 34.363 71.3773 32.8826C68.6157 34.1637 64.1744 34.2776 59.4769 31.7153Z" fill="#9B72D2"/>
<path d="M43.5056 25.7082C43.5056 26.0783 42.5946 26.3915 41.4842 26.3915C40.3739 26.3915 39.4629 26.0783 39.4629 25.7082C39.4629 25.3096 40.3739 24.9964 41.4842 24.9964C42.5946 24.9964 43.5056 25.3096 43.5056 25.7082Z" fill="#9B72D2"/>
</g>
<defs>
<filter id="filter0_d_19_2250" x="-142" y="-34" width="1956" height="124" filterUnits="userSpaceOnUse" color-interpolation-filters="sRGB">
<feFlood flood-opacity="0" result="BackgroundImageFix"/>
<feColorMatrix in="SourceAlpha" type="matrix" values="0 0 0 0 0 0 0 0 0 0 0 0 0 0 0 0 0 0 127 0" result="hardAlpha"/>
<feOffset dy="8"/>
<feGaussianBlur stdDeviation="9"/>
<feComposite in2="hardAlpha" operator="out"/>
<feColorMatrix type="matrix" values="0 0 0 0 0 0 0 0 0 0 0 0 0 0 0 0 0 0 0.08 0"/>
<feBlend mode="normal" in2="BackgroundImageFix" result="effect1_dropShadow_19_2250"/>
<feBlend mode="normal" in="SourceGraphic" in2="effect1_dropShadow_19_2250" result="shape"/>
</filter>
</defs>
</svg>
